<svg width="7" height="14" viewBox="0 0 7 14" fill="none" xmlns="http://www.w3.org/2000/svg">
<path d="M5.87698 6.55505H4.17699V13.101H1.60699V6.55505H0.387985V4.25505H1.60999V2.76605C1.57423 2.41036 1.61557 2.05114 1.73119 1.71288C1.84682 1.37461 2.03401 1.06524 2.28001 0.805864C2.526 0.546484 2.82503 0.343184 3.1567 0.209821C3.48837 0.0764573 3.84491 0.0161639 4.20199 0.0330496L6.10198 0.0420496V2.27505H4.72099C4.64343 2.2716 4.56612 2.28597 4.49499 2.31705C4.42268 2.34822 4.35839 2.39541 4.30698 2.45505C4.25417 2.51517 4.21525 2.58619 4.19299 2.66305C4.17017 2.74056 4.16438 2.82209 4.17599 2.90205V4.25705H6.09698L5.87698 6.55505Z" fill="white"/>
</svg>
