<svg width="47" height="58" viewBox="0 0 47 58" fill="none" xmlns="http://www.w3.org/2000/svg">
<path d="M44.7631 28.5823C46.6243 22.1858 46.0328 16.3278 46.0068 16.0815L46.0059 16.0761C46.0025 16.0447 45.9973 16.0135 45.9904 15.9826L45.9884 15.9756C45.9819 15.9481 45.974 15.921 45.9647 15.8944C45.9616 15.8851 45.9578 15.8761 45.9543 15.8671C45.943 15.8375 45.9301 15.8086 45.9156 15.7804C45.9055 15.761 45.8946 15.7419 45.8831 15.7233C45.8784 15.7158 45.874 15.7083 45.8691 15.7009C45.8538 15.6777 45.8372 15.6553 45.8196 15.6337C45.8178 15.6316 45.8164 15.6292 45.8145 15.627C45.794 15.6023 45.772 15.5789 45.7487 15.5567C45.746 15.5541 45.7429 15.5518 45.7402 15.5492C45.7204 15.5307 45.6997 15.5132 45.6781 15.4968C45.6703 15.4908 45.6621 15.4852 45.6539 15.4794C45.6366 15.4671 45.6188 15.4554 45.6007 15.4443C45.5958 15.4414 45.5914 15.4379 45.5865 15.4349C45.5808 15.4316 45.5748 15.4294 45.5691 15.4262C45.5611 15.4219 45.5539 15.417 45.5457 15.4129C45.5359 15.4079 45.5257 15.4042 45.5157 15.3996C45.5048 15.3946 45.494 15.3895 45.483 15.385C45.4623 15.3766 45.4414 15.3691 45.4202 15.3624C45.4119 15.3598 45.4039 15.3567 45.3956 15.3544C45.3351 15.337 45.2729 15.3264 45.2101 15.3229C45.2041 15.3225 45.1982 15.3228 45.1922 15.3225C45.1675 15.3216 45.1428 15.3218 45.1182 15.323C45.1087 15.3234 45.0992 15.3243 45.0898 15.3251C45.0581 15.328 45.0265 15.3324 44.9953 15.3385C44.9736 15.343 44.9521 15.3483 44.9308 15.3544C44.9222 15.3567 44.9136 15.3588 44.9051 15.3615C44.8749 15.3709 44.8453 15.382 44.8163 15.3948C44.7327 15.4321 43.5459 15.9676 40.9099 17.4747C42.5204 10.9686 40.8818 6.14302 40.6703 5.56483C40.6679 5.55826 40.6648 5.55225 40.6623 5.5458C40.6472 5.50732 40.6293 5.47002 40.6087 5.43422C40.5953 5.41043 40.5806 5.3874 40.5646 5.36523C40.5562 5.35333 40.5475 5.34162 40.5386 5.33011C40.5215 5.30886 40.5036 5.2883 40.4849 5.26848C40.4566 5.2395 40.4265 5.2124 40.3947 5.18738C40.3732 5.1705 40.3508 5.15473 40.3276 5.14014C40.314 5.13158 40.3001 5.12338 40.286 5.11555C40.2794 5.11182 40.2733 5.10763 40.2665 5.10411C40.2627 5.10207 40.2588 5.10071 40.2549 5.09879C40.2405 5.09168 40.2259 5.08495 40.2112 5.07863C40.2 5.07375 40.1888 5.06866 40.1774 5.06424C40.164 5.05903 40.1501 5.05461 40.1363 5.05008C40.1236 5.04589 40.1111 5.04147 40.0983 5.03796C40.0852 5.03433 40.072 5.03161 40.0587 5.02867C40.0452 5.02561 40.0319 5.02221 40.0183 5.01983C40.0045 5.01745 39.9904 5.01609 39.9765 5.01428C39.9636 5.0127 39.9506 5.01066 39.9377 5.00964C39.9219 5.00839 39.9059 5.00839 39.89 5.00805C39.8789 5.00782 39.8678 5.00703 39.8567 5.00726C39.84 5.0076 39.8232 5.00918 39.8063 5.01043C39.7959 5.01122 39.7854 5.01156 39.7751 5.01281C39.7598 5.01462 39.7445 5.01757 39.7292 5.02017C39.7172 5.02221 39.7051 5.02391 39.693 5.0264C39.6802 5.02923 39.6676 5.03297 39.6548 5.03637C39.6404 5.04022 39.6259 5.04385 39.6117 5.04838C39.6093 5.04917 39.607 5.04951 39.6046 5.0503C39.0728 5.2268 34.6219 6.81375 30.6428 11.6288C28.044 4.68837 24.2555 0.82718 23.6499 0.239703C23.6431 0.233133 23.6358 0.227469 23.6287 0.221125C23.6166 0.210137 23.6046 0.199035 23.5918 0.188727C23.5817 0.18057 23.5712 0.173094 23.5608 0.165504C23.5491 0.156895 23.5377 0.148285 23.5257 0.140242C23.5141 0.132539 23.5022 0.125742 23.4903 0.118719C23.4785 0.111809 23.467 0.104672 23.4549 0.0982148C23.4427 0.0917578 23.4303 0.086207 23.4178 0.0804297C23.4054 0.0745391 23.3929 0.0685352 23.3801 0.0633242C23.3678 0.0583398 23.3553 0.0541484 23.3427 0.0496172C23.3292 0.0448594 23.316 0.039875 23.3023 0.0357969C23.2897 0.0320586 23.2769 0.0291133 23.2641 0.0259414C23.2503 0.022543 23.2366 0.0186914 23.2225 0.0159727C23.208 0.0131406 23.1934 0.0114414 23.1789 0.00928906C23.1663 0.00747656 23.1539 0.00521094 23.1411 0.00396484C23.1161 0.00164304 23.091 0.00039579 23.066 0.000226563C23.0632 0.000339844 23.0608 0 23.058 0C23.0554 0 23.0529 0.000339844 23.0503 0.000339844C23.0253 0.000511856 23.0002 0.0017591 22.9752 0.00407812C22.9624 0.00532422 22.95 0.00758984 22.9374 0.00940234C22.9228 0.0114414 22.9082 0.0132539 22.8938 0.0160859C22.8796 0.0188047 22.866 0.022543 22.8522 0.0260547C22.8394 0.0292266 22.8266 0.0320586 22.814 0.0359102C22.8003 0.0399883 22.7871 0.0449727 22.7736 0.0497305C22.761 0.0541484 22.7486 0.0583398 22.7362 0.0634375C22.7234 0.0686484 22.7111 0.0746524 22.6986 0.080543C22.6861 0.0863203 22.6738 0.0919844 22.6616 0.0984414C22.6494 0.104785 22.6379 0.111922 22.6261 0.118945C22.6142 0.125969 22.6023 0.132766 22.5907 0.140469C22.5786 0.148398 22.5672 0.157121 22.5556 0.16573C22.5452 0.173434 22.5347 0.180797 22.5246 0.188953C22.5118 0.199262 22.4998 0.210363 22.4877 0.221352C22.4806 0.227695 22.4733 0.233359 22.4665 0.23993C21.8609 0.827519 18.0724 4.6886 15.4736 11.629C11.4945 6.81398 7.04358 5.22702 6.51184 5.05053C6.50934 5.04974 6.50685 5.04929 6.50447 5.04849C6.49122 5.04419 6.47763 5.0409 6.46415 5.03728C6.45044 5.03354 6.43673 5.02957 6.42303 5.02652C6.4126 5.02425 6.40218 5.02289 6.39165 5.02108C6.37465 5.01802 6.35778 5.01485 6.34078 5.01292C6.33285 5.01202 6.32481 5.01179 6.31677 5.01111C6.2976 5.00923 6.27836 5.00802 6.25911 5.00748C6.2505 5.00737 6.24189 5.00794 6.23328 5.00805C6.21488 5.00809 6.19648 5.00869 6.17811 5.00986C6.16701 5.01077 6.15602 5.01258 6.14492 5.01383C6.12917 5.01564 6.11331 5.01734 6.09768 5.02006C6.08511 5.02221 6.07265 5.0255 6.06007 5.02822C6.04602 5.03139 6.03186 5.03422 6.01793 5.03807C6.00547 5.04158 5.99312 5.04589 5.98066 5.04996C5.96673 5.0545 5.95279 5.05891 5.9392 5.06424C5.92753 5.06877 5.91609 5.07398 5.90465 5.07897C5.89038 5.0852 5.87622 5.09143 5.8624 5.09845C5.85832 5.10049 5.85413 5.10196 5.85016 5.10411C5.84302 5.10785 5.83645 5.11238 5.82943 5.11635C5.80461 5.13015 5.78052 5.14524 5.75727 5.16155C5.73442 5.1776 5.71231 5.19469 5.691 5.21275C5.62881 5.26634 5.5746 5.32856 5.53003 5.39751C5.50026 5.4445 5.47489 5.49414 5.45424 5.5458C5.45175 5.55225 5.44858 5.55826 5.4462 5.56483C5.2347 6.14302 3.59609 10.9686 5.20661 17.4747C2.57056 15.9676 1.38371 15.4321 1.30022 15.3948L1.2975 15.3938C1.26959 15.3815 1.24104 15.3708 1.21197 15.3616C1.20268 15.3587 1.19317 15.3565 1.18377 15.3538C1.16335 15.3479 1.14272 15.3429 1.12192 15.3386C1.0908 15.3325 1.05938 15.328 1.02778 15.3254C1.01758 15.3245 1.0075 15.3236 0.997419 15.323C0.973799 15.3218 0.950139 15.3217 0.926505 15.3225C0.919595 15.3228 0.912571 15.3225 0.905661 15.323C0.843293 15.3265 0.781514 15.337 0.721466 15.3543C0.712064 15.357 0.702888 15.3605 0.693486 15.3634C0.673565 15.3698 0.65388 15.3768 0.634466 15.3846C0.622458 15.3895 0.610564 15.395 0.598782 15.4005C0.58938 15.4048 0.579864 15.4083 0.570575 15.413C0.563099 15.4169 0.556302 15.4214 0.548939 15.4254C0.542708 15.4288 0.536138 15.4313 0.530021 15.4349C0.524583 15.4381 0.519825 15.4419 0.514501 15.4451C0.49752 15.4555 0.480896 15.4664 0.464658 15.478C0.455482 15.4844 0.446193 15.4906 0.437357 15.4974C0.417618 15.5127 0.398568 15.5288 0.380263 15.5457C0.375958 15.5497 0.371314 15.5533 0.367009 15.5573C0.34422 15.579 0.322699 15.602 0.302552 15.6262C0.299607 15.6298 0.297115 15.6336 0.294169 15.6372C0.277786 15.6574 0.262362 15.6784 0.24795 15.7C0.242513 15.7081 0.237529 15.7166 0.232431 15.725C0.215571 15.7522 0.200254 15.7804 0.186552 15.8093C0.177985 15.8277 0.170087 15.8463 0.162876 15.8653C0.159025 15.8752 0.154947 15.885 0.151435 15.8952C0.142826 15.9201 0.135576 15.9455 0.129345 15.9711C0.128326 15.9751 0.126966 15.9791 0.125946 15.9832C0.119162 16.0137 0.114019 16.0445 0.11054 16.0755C0.110314 16.0776 0.109747 16.0795 0.109521 16.0815C0.083466 16.3278 -0.507975 22.1858 1.35324 28.5823C2.29596 31.8223 4.33423 34.556 7.10147 36.3781C6.09032 36.886 5.39443 37.9325 5.39443 39.1389C5.39443 40.7378 6.61583 42.0566 8.17458 42.2115L9.99954 52.0246C10.6434 55.487 13.6669 58 17.1887 58H28.9275C32.4492 58 35.4725 55.487 36.1165 52.0245L37.9387 42.2268H38.9901C40.6929 42.2268 42.0782 40.8415 42.0782 39.1388C42.0782 37.5894 40.9311 36.3034 39.4417 36.0842C41.9913 34.2679 43.8696 31.6529 44.7631 28.5823ZM38.7859 18.7167C37.393 19.5478 35.7335 20.5676 33.7835 21.8095L33.7311 21.8429C33.5004 21.9898 33.2661 22.1397 33.0274 22.2928L32.9908 22.3163C32.9855 22.2513 32.9794 22.1865 32.9739 22.1216C32.9595 21.9491 32.9441 21.7768 32.9275 21.6045C34.9009 17.4553 37.142 12.9595 39.6041 8.21051C40.0101 10.4241 40.2668 14.2024 38.7859 18.7167ZM37.9809 7.64932C36.0085 11.4582 34.1782 15.1041 32.5141 18.5393C32.2013 16.7443 31.7843 15.0766 31.3004 13.5387C33.6276 10.4383 36.2039 8.62954 37.9809 7.64932ZM29.5287 13.5725C29.5345 13.5991 29.541 13.6257 29.5496 13.652C30.4756 16.4777 31.0634 19.4544 31.302 22.5184L31.3073 22.5892C31.3207 22.765 31.3327 22.9412 31.3437 23.1174C31.3468 23.1679 31.3501 23.2185 31.3531 23.2691C31.3558 23.315 31.3577 23.3611 31.3603 23.4071C28.6147 25.4068 26.3629 28.116 24.6276 31.5005L24.6151 31.5246C24.5487 31.6543 24.4834 31.7846 24.419 31.9153L24.3871 31.9805C24.3252 32.1067 24.2643 32.2333 24.2043 32.3603C24.1937 32.3827 24.1834 32.4053 24.1728 32.4279C24.0825 32.6209 23.9942 32.8148 23.9079 33.0096V3.07241C24.748 4.11222 25.8434 5.63291 26.9448 7.63697C27.9859 9.53223 28.8508 11.5191 29.5287 13.5725ZM16.5668 13.652C16.575 13.6258 16.582 13.5993 16.5878 13.5725C17.2656 11.5191 18.1305 9.53223 19.1716 7.63697C20.2729 5.6328 21.3684 4.11211 22.2087 3.0723V33.0095C22.1223 32.8143 22.0338 32.6201 21.9432 32.4269C21.9329 32.4048 21.9227 32.3826 21.9123 32.3605C21.8522 32.2332 21.7911 32.1064 21.7291 31.98L21.6975 31.9153C21.6331 31.7845 21.5677 31.6542 21.5013 31.5244L21.4889 31.5002C19.7535 28.1157 17.5017 25.4067 14.7561 23.4069C14.7587 23.3609 14.7606 23.3148 14.7634 23.2689C14.7663 23.2182 14.7696 23.1678 14.7728 23.1172C14.7839 22.9408 14.7958 22.7647 14.8091 22.589L14.8144 22.5182C15.0529 19.4542 15.6408 16.4777 16.5668 13.652ZM14.8157 13.5387C14.3318 15.0766 13.9149 16.7444 13.602 18.5394C11.9382 15.1048 10.108 11.4589 8.13516 7.64932C9.91243 8.62954 12.4887 10.4383 14.8157 13.5387ZM6.51229 8.21062C8.97491 12.9605 11.216 17.4564 13.1887 21.6048C13.1722 21.777 13.1568 21.9493 13.1424 22.1217C13.137 22.1866 13.1307 22.2514 13.1255 22.3164L13.0892 22.2932C12.8512 22.1405 12.613 21.9881 12.3745 21.8362L12.3393 21.8138C10.3864 20.57 8.72479 19.5488 7.33029 18.7168C5.84937 14.2024 6.10606 10.4241 6.51229 8.21062ZM8.8247 21.6144L9.06882 21.7655C9.39679 21.9687 9.72421 22.1728 10.0511 22.3778L10.3823 22.5858C10.5827 22.712 10.7847 22.8395 10.988 22.9685L11.2058 23.1064C11.5078 23.2983 11.8094 23.4909 12.1105 23.6841C12.3763 23.8545 12.6435 24.0263 12.9137 24.2008C13.0771 24.307 13.2388 24.4157 13.3989 24.5269C16.8117 26.8936 19.4402 30.4405 21.2306 35.0878C21.2417 35.1168 21.2524 35.1463 21.2635 35.1753C21.3146 35.3092 21.3654 35.4436 21.4152 35.5793C21.4378 35.641 21.4598 35.7036 21.4821 35.7657C21.5162 35.8604 21.5503 35.955 21.5837 36.0506H20.5532C14.8442 33.4405 10.057 28.1322 7.03599 24.1181C5.34379 21.8697 4.00379 19.7685 3.09108 18.2381C4.41511 18.9686 6.30159 20.0562 8.8247 21.6144ZM2.98483 28.1076C2.00744 24.7482 1.74757 21.4933 1.71109 19.2475C2.63796 20.7932 3.97049 22.8687 5.65894 25.1143C9.31906 29.9826 13.115 33.6467 16.9795 36.0507H10.0834C6.61311 34.5893 4.03086 31.7027 2.98483 28.1076ZM40.3791 39.1388C40.3791 39.9046 39.756 40.5276 38.9902 40.5276H18.9799C18.7546 40.5276 18.5385 40.6171 18.3791 40.7765C18.2198 40.9358 18.1303 41.1519 18.1303 41.3772C18.1303 41.6026 18.2198 41.8187 18.3791 41.978C18.5385 42.1373 18.7546 42.2268 18.9799 42.2268H36.2101L34.4457 51.7139C33.9516 54.3717 31.6308 56.3008 28.9276 56.3008H17.1887C14.4854 56.3008 12.1645 54.3717 11.6703 51.7139L9.90597 42.2268H12.9004C13.1258 42.2268 13.3419 42.1373 13.5012 41.978C13.6605 41.8187 13.7501 41.6026 13.7501 41.3772C13.7501 41.1519 13.6605 40.9358 13.5012 40.7765C13.3419 40.6171 13.1258 40.5276 12.9004 40.5276H8.48248C7.7167 40.5276 7.09365 39.9046 7.09365 39.1388C7.09365 38.373 7.7167 37.75 8.48248 37.75H38.9901C39.756 37.75 40.3791 38.373 40.3791 39.1388ZM36.0329 36.0507H29.1347C32.7514 33.7987 36.3161 30.437 39.7659 26.017C39.8345 25.929 39.8852 25.8284 39.915 25.7209C39.9448 25.6133 39.953 25.501 39.9394 25.3902C39.9257 25.2795 39.8904 25.1725 39.8354 25.0755C39.7804 24.9784 39.7068 24.8931 39.6189 24.8245C39.4412 24.6859 39.2158 24.6236 38.9922 24.6511C38.7686 24.6787 38.5651 24.7939 38.4265 24.9715C34.2475 30.3256 29.9296 34.0494 25.5921 36.0395C25.5847 36.0429 25.5778 36.0472 25.5704 36.0509H24.5327C24.5662 35.9552 24.6002 35.8607 24.6343 35.7659C24.6567 35.7039 24.6785 35.6412 24.7012 35.5795C24.7509 35.4438 24.8017 35.3094 24.8529 35.1755C24.864 35.1465 24.8747 35.117 24.8858 35.0881C26.6762 30.4407 29.3045 26.8941 32.7173 24.5273C33.1452 24.2456 33.5742 23.965 34.0037 23.6857L34.1828 23.5709C34.4266 23.4149 34.6682 23.2607 34.908 23.1084L35.1353 22.9643C35.3319 22.8397 35.5272 22.7163 35.7212 22.5942C35.8402 22.5193 35.9575 22.4455 36.0742 22.3725C36.4096 22.1621 36.7457 21.9527 37.0824 21.7442L37.2831 21.62C39.8118 20.058 41.7018 18.9685 43.0276 18.2372C42.6568 18.8588 42.2759 19.4743 41.8848 20.0834C41.8234 20.1773 41.7811 20.2824 41.7606 20.3927C41.74 20.503 41.7414 20.6163 41.7649 20.726C41.7883 20.8358 41.8332 20.9398 41.8971 21.032C41.9609 21.1243 42.0424 21.203 42.1368 21.2636C42.2312 21.3242 42.3367 21.3655 42.4472 21.3851C42.5577 21.4047 42.671 21.4023 42.7805 21.3779C42.89 21.3535 42.9936 21.3076 43.0853 21.243C43.177 21.1783 43.255 21.0962 43.3148 21.0012C43.6876 20.4205 44.0517 19.8342 44.4068 19.2425C44.371 21.4857 44.1115 24.7397 43.1315 28.1078C42.0854 31.7027 39.5032 34.5893 36.0329 36.0507Z" fill="white"/>
</svg>
