<svg width="14" height="14" viewBox="0 0 14 14" fill="none" xmlns="http://www.w3.org/2000/svg">
<path d="M0.973996 4.50039C0.98433 3.99218 1.08069 3.4894 1.259 3.01339C1.41286 2.60456 1.65415 2.23427 1.966 1.92839C2.27188 1.61654 2.64217 1.37525 3.051 1.22139C3.52675 1.04354 4.02919 0.947517 4.537 0.937391C5.19 0.907391 5.399 0.900391 7.063 0.900391C8.727 0.900391 8.937 0.907391 9.588 0.937391C10.0962 0.947725 10.599 1.04409 11.075 1.22239C11.4819 1.37975 11.8515 1.62033 12.16 1.92874C12.4686 2.23714 12.7094 2.60657 12.867 3.01339C13.045 3.48946 13.141 3.99224 13.151 4.50039C13.181 5.15339 13.188 5.36239 13.188 7.02639C13.188 8.69039 13.181 8.90039 13.151 9.55239C13.1407 10.0606 13.0443 10.5634 12.866 11.0394C12.7086 11.4464 12.4679 11.8161 12.1593 12.1247C11.8507 12.4333 11.481 12.674 11.074 12.8314C10.598 13.0097 10.0952 13.1061 9.587 13.1164C8.934 13.1464 8.725 13.1534 7.061 13.1534C5.397 13.1534 5.189 13.1464 4.535 13.1164C4.02679 13.1061 3.52401 13.0097 3.048 12.8314C2.64149 12.6737 2.27239 12.4328 1.96433 12.1242C1.65626 11.8157 1.41603 11.4462 1.259 11.0394C1.08069 10.5634 0.98433 10.0606 0.973996 9.55239C0.943996 8.90039 0.936996 8.69039 0.936996 7.02639C0.936996 5.36239 0.943996 5.15439 0.973996 4.50039ZM2.074 9.50039C2.07858 9.88902 2.14995 10.274 2.285 10.6384C2.38726 10.9027 2.54376 11.1426 2.74442 11.3428C2.94507 11.5429 3.18543 11.6988 3.45 11.8004C3.81411 11.9353 4.19871 12.0067 4.587 12.0114C5.233 12.0404 5.427 12.0474 7.062 12.0474C8.697 12.0474 8.892 12.0414 9.537 12.0114C9.92596 12.0069 10.3112 11.9355 10.676 11.8004C10.9397 11.6984 11.1792 11.5425 11.3792 11.3426C11.5791 11.1426 11.7351 10.9031 11.837 10.6394C11.9725 10.2747 12.0442 9.88941 12.049 9.50039C12.078 8.85439 12.085 8.66039 12.085 7.02539C12.085 5.39039 12.079 5.19639 12.049 4.54939C12.0437 4.1614 11.972 3.77719 11.837 3.41339C11.7352 3.14916 11.5793 2.90917 11.3791 2.70886C11.179 2.50856 10.9391 2.35238 10.675 2.25039C10.3106 2.1153 9.92562 2.04393 9.537 2.03939C8.892 2.01039 8.698 2.00039 7.063 2.00039C5.427 2.00039 5.237 2.01039 4.587 2.04039C4.19871 2.04508 3.81411 2.11646 3.45 2.25139C3.18554 2.35016 2.94641 2.50662 2.75 2.70939C2.54722 2.9058 2.39076 3.14493 2.292 3.40939C2.15687 3.7738 2.0855 4.15876 2.081 4.54739C2.047 5.20039 2.037 5.39039 2.037 7.02639C2.037 8.66239 2.047 8.85639 2.076 9.50039H2.074Z" fill="white"/>
<path d="M7.063 3.88135C7.68522 3.88135 8.29346 4.06586 8.81082 4.41154C9.32818 4.75723 9.73141 5.24857 9.96952 5.82343C10.2076 6.39828 10.2699 7.03084 10.1485 7.6411C10.0272 8.25137 9.72753 8.81193 9.28755 9.25191C8.84758 9.69188 8.28701 9.99151 7.67675 10.1129C7.06649 10.2343 6.43393 10.172 5.85907 9.93387C5.28422 9.69576 4.79288 9.29253 4.44719 8.77517C4.10151 8.25781 3.917 7.64957 3.917 7.02735C3.917 6.19298 4.24845 5.39278 4.83844 4.80279C5.42843 4.2128 6.22863 3.88135 7.063 3.88135ZM7.063 9.06935C7.46682 9.06935 7.86158 8.94961 8.19737 8.72528C8.53315 8.50094 8.79488 8.18209 8.94946 7.80902C9.10405 7.43595 9.14454 7.02542 9.06583 6.62934C8.98712 6.23326 8.79274 5.86941 8.50726 5.58379C8.22178 5.29817 7.85803 5.10361 7.46198 5.02471C7.06594 4.9458 6.65539 4.9861 6.28225 5.1405C5.90911 5.2949 5.59012 5.55647 5.36562 5.89215C5.14112 6.22782 5.02119 6.62252 5.021 7.02635C5.021 7.29451 5.07381 7.56004 5.17643 7.80779C5.27905 8.05553 5.42947 8.28064 5.61908 8.47026C6.00203 8.85321 6.52142 9.06935 7.063 9.06935Z" fill="white"/>
<path d="M3.061 3.75642C3.0604 3.90209 3.10311 4.04465 3.18369 4.166C3.26427 4.28735 3.37908 4.38202 3.51357 4.43799C3.64805 4.49396 3.79614 4.50871 3.93902 4.48036C4.0819 4.45202 4.21314 4.38185 4.31607 4.27878C4.419 4.17571 4.48898 4.04438 4.51713 3.90146C4.54528 3.75854 4.53033 3.61047 4.47418 3.47607C4.41802 3.34166 4.32319 3.22697 4.20173 3.14656C4.08027 3.06614 3.93766 3.02363 3.792 3.02442C3.59827 3.02548 3.4128 3.10297 3.27591 3.24005C3.13902 3.37712 3.06178 3.5627 3.061 3.75642Z" fill="white"/>
</svg>
