<svg width="12" height="14" viewBox="0 0 12 14" fill="none" xmlns="http://www.w3.org/2000/svg">
<path d="M7.038 9.51206C6.36416 9.40484 5.73223 9.11618 5.21 8.67706C4.851 10.4771 4.41 12.2001 3.118 13.1021C2.718 10.3831 3.708 8.34006 4.164 6.17306C3.379 4.91106 4.255 2.37306 5.905 3.00006C7.935 3.76906 4.147 7.68706 6.69 8.17606C9.344 8.68706 10.428 3.76606 8.782 2.16506C6.403 -0.146939 1.858 2.11206 2.418 5.42106C2.554 6.23006 3.427 6.47506 2.766 7.59106C1.243 7.26806 0.789999 6.11806 0.842999 4.58606C0.959505 3.41001 1.48743 2.31285 2.33373 1.48796C3.18002 0.663065 4.29035 0.163409 5.469 0.0770614C8.336 -0.229939 11.027 1.08606 11.399 3.67006C11.817 6.58506 10.105 9.74106 7.039 9.51406L7.038 9.51206Z" fill="white"/>
</svg>
