<svg width="30" height="30" viewBox="0 0 30 30" fill="none" xmlns="http://www.w3.org/2000/svg">
<path fill-rule="evenodd" clip-rule="evenodd" d="M0 15C0 23.2841 6.71591 30 15 30C23.2841 30 30 23.2841 30 15C30 6.71591 23.2841 -1.90735e-06 15 -1.90735e-06C6.71591 -1.90735e-06 0 6.71591 0 15ZM18.0095 19.4905C18.2579 19.7476 18.3954 20.0921 18.3923 20.4496C18.3892 20.8072 18.2458 21.1492 17.9929 21.402C17.7401 21.6549 17.3981 21.7983 17.0405 21.8014C16.683 21.8045 16.3385 21.667 16.0814 21.4186L10.6268 15.9641C10.3712 15.7084 10.2276 15.3616 10.2276 15C10.2276 14.6384 10.3712 14.2916 10.6268 14.0359L16.0814 8.58136C16.3385 8.33296 16.683 8.19552 17.0405 8.19862C17.3981 8.20173 17.7401 8.34515 17.9929 8.59797C18.2458 8.8508 18.3892 9.19282 18.3923 9.55036C18.3954 9.9079 18.2579 10.2524 18.0095 10.5095L13.5191 15L18.0095 19.4905Z" fill="#31815E"/>
</svg>
