<svg width="18" height="9" viewBox="0 0 18 9" fill="none" xmlns="http://www.w3.org/2000/svg">
<path d="M17.7938 3.86166L17.7931 3.86099L14.1192 0.204747C13.8439 -0.0691545 13.3987 -0.0681352 13.1248 0.207138C12.8508 0.482376 12.8519 0.927559 13.1271 1.2015L15.5938 3.65624L0.703124 3.65624C0.314789 3.65624 0 3.97103 0 4.35937C0 4.7477 0.314789 5.06249 0.703124 5.06249H15.5938L13.1272 7.51724C12.8519 7.79117 12.8509 8.23636 13.1248 8.5116C13.3988 8.7869 13.844 8.78785 14.1192 8.51399L17.7932 4.85774L17.7938 4.85707C18.0692 4.58222 18.0683 4.1356 17.7938 3.86166Z" fill="#31815E"/>
</svg>
