<svg width="30" height="30" viewBox="0 0 30 30" fill="none" xmlns="http://www.w3.org/2000/svg">
<path fill-rule="evenodd" clip-rule="evenodd" d="M30 15C30 6.71591 23.2841 0 15 0C6.71591 0 -1.90735e-06 6.71591 -1.90735e-06 15C-1.90735e-06 23.2841 6.71591 30 15 30C23.2841 30 30 23.2841 30 15ZM11.9905 10.5095C11.7421 10.2524 11.6046 9.9079 11.6077 9.55036C11.6108 9.19282 11.7542 8.8508 12.0071 8.59797C12.2599 8.34515 12.6019 8.20173 12.9595 8.19863C13.317 8.19552 13.6615 8.33297 13.9186 8.58136L19.3732 14.0359C19.6288 14.2916 19.7724 14.6384 19.7724 15C19.7724 15.3616 19.6288 15.7084 19.3732 15.9641L13.9186 21.4186C13.6615 21.667 13.317 21.8045 12.9595 21.8014C12.6019 21.7983 12.2599 21.6549 12.0071 21.402C11.7542 21.1492 11.6108 20.8072 11.6077 20.4496C11.6046 20.0921 11.7421 19.7476 11.9905 19.4905L16.4809 15L11.9905 10.5095Z" fill="#31815E"/>
</svg>
