<svg width="14" height="11" viewBox="0 0 14 11" fill="none" xmlns="http://www.w3.org/2000/svg">
<path d="M13.132 1.92515C12.6728 2.12554 12.1866 2.25696 11.689 2.31515C12.2108 2.00869 12.6038 1.52334 12.795 0.949148C12.2992 1.23771 11.7583 1.44056 11.195 1.54915C10.9583 1.30128 10.6736 1.10414 10.3583 0.969711C10.0431 0.835278 9.70374 0.766361 9.361 0.767148C8.69989 0.762623 8.06403 1.02078 7.59318 1.48488C7.12233 1.94898 6.85502 2.58104 6.85 3.24215C6.84955 3.43204 6.87136 3.62133 6.91499 3.80615C5.91863 3.75834 4.9432 3.50324 4.05099 3.05715C3.15912 2.61116 2.37001 1.98415 1.73399 1.21615C1.51043 1.59256 1.39262 2.02235 1.393 2.46015C1.39357 2.8695 1.49607 3.27227 1.69125 3.63209C1.88644 3.99191 2.16816 4.29746 2.51099 4.52115C2.11185 4.50923 1.72121 4.403 1.37099 4.21115V4.24315C1.37501 4.81811 1.57821 5.3739 1.94598 5.81588C2.31374 6.25786 2.82335 6.55869 3.388 6.66715C3.01772 6.76666 2.62975 6.78136 2.253 6.71015C2.41772 7.20475 2.73225 7.63584 3.15296 7.94368C3.57368 8.25151 4.07974 8.42082 4.601 8.42815C3.53818 9.23412 2.20685 9.60202 0.880997 9.45615C2.03407 10.1842 3.37032 10.5695 4.73399 10.5671C5.66733 10.5805 6.59403 10.4083 7.46025 10.0605C8.32647 9.71275 9.11497 9.19632 9.77991 8.54123C10.4449 7.88614 10.973 7.10546 11.3337 6.24453C11.6944 5.3836 11.8804 4.45958 11.881 3.52615C11.881 3.41915 11.881 3.31215 11.874 3.20615C12.3664 2.85759 12.7924 2.42375 13.132 1.92515Z" fill="white"/>
</svg>
